{
 "cells": [
  {
   "cell_type": "code",
   "execution_count": 20,
   "metadata": {},
   "outputs": [],
   "source": [
    "import mido\n",
    "import os\n",
    "import pandas as pd\n",
    "import numpy as np\n",
    "from aaapi import MidiUtils"
   ]
  },
  {
   "cell_type": "code",
   "execution_count": 21,
   "metadata": {},
   "outputs": [],
   "source": [
    "midi_dir = '../dataset/midi_by_tracks'\n",
    "midi_files = os.listdir(midi_dir)"
   ]
  },
  {
   "cell_type": "code",
   "execution_count": 22,
   "metadata": {},
   "outputs": [],
   "source": [
    "def is_valid(track):\n",
    "    expecting_on = True\n",
    "    at_time = 0\n",
    "    for msg in track:\n",
    "        at_time += msg.time\n",
    "        if 'note' in msg.type:\n",
    "            if (expecting_on and msg.type == 'note_on') or (not expecting_on and msg.type == 'note_off'):\n",
    "                expecting_on = not expecting_on\n",
    "            else:\n",
    "                return False, at_time\n",
    "    return True, None"
   ]
  },
  {
   "cell_type": "code",
   "execution_count": 23,
   "metadata": {},
   "outputs": [],
   "source": [
    "def is_all_note_on(track):\n",
    "    for msg in track:\n",
    "        if 'note' in msg.type and 'off' in msg.type:\n",
    "            return False\n",
    "    return True"
   ]
  },
  {
   "cell_type": "code",
   "execution_count": 24,
   "metadata": {},
   "outputs": [],
   "source": [
    "def vel0_to_note_off(track):\n",
    "    nt = list()\n",
    "    for msg in track:\n",
    "        if msg.type == 'note_on' and msg.velocity == 0:\n",
    "            msg = mido.Message(\n",
    "                type='note_off', \n",
    "                channel=msg.channel,\n",
    "                note=msg.note,\n",
    "                velocity=msg.velocity,\n",
    "                time=msg.time\n",
    "            )\n",
    "        nt += [msg]\n",
    "    return nt"
   ]
  },
  {
   "cell_type": "code",
   "execution_count": 25,
   "metadata": {},
   "outputs": [],
   "source": [
    "def sanitise(track):\n",
    "    added_rest = 0\n",
    "    nt = list()\n",
    "    for msg in track:\n",
    "        if 'note' in msg.type:\n",
    "            msg.time += added_rest\n",
    "            added_rest = 0\n",
    "            nt += [msg]\n",
    "        else:\n",
    "            added_rest += msg.time\n",
    "    return nt"
   ]
  },
  {
   "cell_type": "code",
   "execution_count": 17,
   "metadata": {},
   "outputs": [
    {
     "ename": "Exception",
     "evalue": "",
     "output_type": "error",
     "traceback": [
      "\u001b[0;31m---------------------------------------------------------------------------\u001b[0m",
      "\u001b[0;31mException\u001b[0m                                 Traceback (most recent call last)",
      "\u001b[0;32m<ipython-input-17-70e5ff7669b7>\u001b[0m in \u001b[0;36m<module>\u001b[0;34m\u001b[0m\n\u001b[0;32m----> 1\u001b[0;31m \u001b[0;32mraise\u001b[0m \u001b[0mException\u001b[0m\u001b[0;34m(\u001b[0m\u001b[0;34m)\u001b[0m\u001b[0;34m\u001b[0m\u001b[0;34m\u001b[0m\u001b[0m\n\u001b[0m\u001b[1;32m      2\u001b[0m \u001b[0;32mfor\u001b[0m \u001b[0mf\u001b[0m \u001b[0;32min\u001b[0m \u001b[0mmidi_files\u001b[0m\u001b[0;34m:\u001b[0m\u001b[0;34m\u001b[0m\u001b[0;34m\u001b[0m\u001b[0m\n\u001b[1;32m      3\u001b[0m     \u001b[0mfpath\u001b[0m \u001b[0;34m=\u001b[0m \u001b[0mos\u001b[0m\u001b[0;34m.\u001b[0m\u001b[0mpath\u001b[0m\u001b[0;34m.\u001b[0m\u001b[0mjoin\u001b[0m\u001b[0;34m(\u001b[0m\u001b[0mmidi_dir\u001b[0m\u001b[0;34m,\u001b[0m \u001b[0mf\u001b[0m\u001b[0;34m)\u001b[0m\u001b[0;34m\u001b[0m\u001b[0;34m\u001b[0m\u001b[0m\n\u001b[1;32m      4\u001b[0m     \u001b[0mfpath\u001b[0m \u001b[0;34m=\u001b[0m \u001b[0mos\u001b[0m\u001b[0;34m.\u001b[0m\u001b[0mpath\u001b[0m\u001b[0;34m.\u001b[0m\u001b[0mjoin\u001b[0m\u001b[0;34m(\u001b[0m\u001b[0mfpath\u001b[0m\u001b[0;34m,\u001b[0m \u001b[0mos\u001b[0m\u001b[0;34m.\u001b[0m\u001b[0mlistdir\u001b[0m\u001b[0;34m(\u001b[0m\u001b[0mfpath\u001b[0m\u001b[0;34m)\u001b[0m\u001b[0;34m[\u001b[0m\u001b[0;36m0\u001b[0m\u001b[0;34m]\u001b[0m\u001b[0;34m)\u001b[0m\u001b[0;34m\u001b[0m\u001b[0;34m\u001b[0m\u001b[0m\n\u001b[1;32m      5\u001b[0m     \u001b[0mmidi\u001b[0m \u001b[0;34m=\u001b[0m \u001b[0mmido\u001b[0m\u001b[0;34m.\u001b[0m\u001b[0mMidiFile\u001b[0m\u001b[0;34m(\u001b[0m\u001b[0mfpath\u001b[0m\u001b[0;34m)\u001b[0m\u001b[0;34m\u001b[0m\u001b[0;34m\u001b[0m\u001b[0m\n",
      "\u001b[0;31mException\u001b[0m: "
     ]
    }
   ],
   "source": [
    "raise Exception()\n",
    "for f in midi_files:\n",
    "    fpath = os.path.join(midi_dir, f)\n",
    "    fpath = os.path.join(fpath, os.listdir(fpath)[0])\n",
    "    midi = mido.MidiFile(fpath)\n",
    "    midi.tracks = [sanitise(midi.tracks[0])]\n",
    "    midi.save(fpath)\n",
    "    print(\"Sanitized\", f)"
   ]
  },
  {
   "cell_type": "code",
   "execution_count": 53,
   "metadata": {},
   "outputs": [
    {
     "name": "stdout",
     "output_type": "stream",
     "text": [
      "Converted taylor_swift-safe_and_sound_feat_the_civil_wars.mid to note_on and note_off messages\n",
      "Converted bruno_mars-locked_out_of_heaven.mid to note_on and note_off messages\n",
      "Converted demi_lovato-skyscraper.mid to note_on and note_off messages\n",
      "Converted taylor_swift-i_knew_you_were_trouble.mid to note_on and note_off messages\n",
      "Converted Backstreet Boys - I Want It That Way.mid to note_on and note_off messages\n",
      "Converted Westlife_Swear_It_Again.mid to note_on and note_off messages\n",
      "Converted avril_lavigne-when_youre_gone.mid to note_on and note_off messages\n",
      "Converted avril_lavigne-unwanted.mid to note_on and note_off messages\n",
      "Converted WESTLIFE.I lay my love on you.mid to note_on and note_off messages\n",
      "Converted bruno_mars-just_the_way_you_are.mid to note_on and note_off messages\n",
      "Converted ed_sheeran-thinking_out_loud.mid to note_on and note_off messages\n",
      "Converted GREENDAY.In the end.mid to note_on and note_off messages\n",
      "Converted Britney_Spears_-_You_Drive_Me_Crazy.mid to note_on and note_off messages\n",
      "Converted WESTLIFE.Up town girl K.mid to note_on and note_off messages\n",
      "Converted BRITNEY SPEARS.Lucky K.mid to note_on and note_off messages\n",
      "Converted carly_rae_jepsen-call_me_maybe.mid to note_on and note_off messages\n",
      "Converted bruno_mars-when_i_was_your_man.mid to note_on and note_off messages\n"
     ]
    }
   ],
   "source": [
    "for f in midi_files:\n",
    "    fpath = os.path.join(midi_dir, f)\n",
    "    fpath = os.path.join(fpath, os.listdir(fpath)[0])\n",
    "    midi = mido.MidiFile(fpath)\n",
    "    t = midi.tracks[0]\n",
    "    \n",
    "    mdf = list()\n",
    "    for msg in t:\n",
    "        ntype = msg.type\n",
    "        ntime = msg.time\n",
    "        mdf += [[ntype, ntime]]\n",
    "    mdf = pd.DataFrame(mdf, columns=['type', 'time'])\n",
    "\n",
    "    valid, time = is_valid(t)\n",
    "    if not valid:\n",
    "        if is_all_note_on(t):\n",
    "            midi.tracks = [vel0_to_note_off(t)]\n",
    "            midi.save(fpath)\n",
    "            print(\"Converted\", f, \"to note_on and note_off messages\")        "
   ]
  },
  {
   "cell_type": "code",
   "execution_count": 87,
   "metadata": {},
   "outputs": [
    {
     "name": "stdout",
     "output_type": "stream",
     "text": [
      "bruno_mars-when_i_was_your_man.mid at time 120191\n"
     ]
    }
   ],
   "source": [
    "for f in midi_files:\n",
    "    fpath = os.path.join(midi_dir, f)\n",
    "    fpath = os.path.join(fpath, os.listdir(fpath)[0])\n",
    "    midi = mido.MidiFile(fpath)\n",
    "    t = midi.tracks[0]\n",
    "    \n",
    "    mdf = list()\n",
    "    for msg in t:\n",
    "        ntype = msg.type\n",
    "        ntime = msg.time\n",
    "        mdf += [[ntype, ntime]]\n",
    "    mdf = pd.DataFrame(mdf, columns=['type', 'time'])\n",
    "\n",
    "    valid, time = is_valid(t)\n",
    "    if not valid:\n",
    "        print(f, \"at time\", time)     \n",
    "        "
   ]
  },
  {
   "cell_type": "code",
   "execution_count": 50,
   "metadata": {},
   "outputs": [
    {
     "data": {
      "text/plain": [
       "[<message note_on channel=3 note=61 velocity=120 time=2879>,\n",
       " <message note_off channel=3 note=61 velocity=0 time=400>,\n",
       " <message note_on channel=3 note=58 velocity=119 time=16>,\n",
       " <message note_off channel=3 note=58 velocity=0 time=119>,\n",
       " <message note_on channel=3 note=58 velocity=98 time=29>,\n",
       " <message note_off channel=3 note=58 velocity=0 time=188>,\n",
       " <message note_on channel=3 note=56 velocity=119 time=13>,\n",
       " <message note_off channel=3 note=56 velocity=0 time=431>,\n",
       " <message note_on channel=3 note=54 velocity=120 time=6>,\n",
       " <message note_off channel=3 note=54 velocity=0 time=150>,\n",
       " <message note_on channel=3 note=54 velocity=104 time=22>,\n",
       " <message note_off channel=3 note=54 velocity=0 time=165>,\n",
       " <message note_on channel=3 note=61 velocity=119 time=16>,\n",
       " <message note_off channel=3 note=61 velocity=0 time=373>,\n",
       " <message note_on channel=3 note=58 velocity=119 time=25>,\n",
       " <message note_off channel=3 note=58 velocity=0 time=312>,\n",
       " <message note_on channel=3 note=56 velocity=119 time=38>,\n",
       " <message note_off channel=3 note=56 velocity=0 time=188>,\n",
       " <message note_on channel=3 note=58 velocity=109 time=12>,\n",
       " <message note_off channel=3 note=58 velocity=0 time=377>,\n",
       " <message note_on channel=3 note=56 velocity=113 time=20>,\n",
       " <message note_off channel=3 note=56 velocity=0 time=431>,\n",
       " <message note_on channel=3 note=56 velocity=119 time=8>,\n",
       " <message note_off channel=3 note=56 velocity=0 time=188>,\n",
       " <message note_on channel=3 note=61 velocity=119 time=11>,\n",
       " <message note_off channel=3 note=61 velocity=0 time=181>,\n",
       " <message note_on channel=3 note=61 velocity=115 time=13>,\n",
       " <message note_off channel=3 note=61 velocity=0 time=185>,\n",
       " <message note_on channel=3 note=58 velocity=115 time=13>,\n",
       " <message note_off channel=3 note=58 velocity=0 time=135>,\n",
       " <message note_on channel=3 note=58 velocity=106 time=24>,\n",
       " <message note_off channel=3 note=58 velocity=0 time=177>,\n",
       " <message note_on channel=3 note=56 velocity=119 time=15>,\n",
       " <message note_off channel=3 note=56 velocity=0 time=346>,\n",
       " <message note_on channel=3 note=61 velocity=119 time=31>,\n",
       " <message note_off channel=3 note=61 velocity=0 time=181>,\n",
       " <message note_on channel=3 note=58 velocity=119 time=13>,\n",
       " <message note_off channel=3 note=58 velocity=0 time=365>,\n",
       " <message note_on channel=3 note=56 velocity=118 time=25>,\n",
       " <message note_off channel=3 note=56 velocity=0 time=327>,\n",
       " <message note_on channel=3 note=58 velocity=117 time=34>,\n",
       " <message note_off channel=3 note=58 velocity=0 time=350>,\n",
       " <message note_on channel=3 note=56 velocity=117 time=28>,\n",
       " <message note_off channel=3 note=56 velocity=0 time=427>,\n",
       " <message note_on channel=3 note=56 velocity=109 time=9>,\n",
       " <message note_off channel=3 note=56 velocity=0 time=181>,\n",
       " <message note_on channel=3 note=59 velocity=119 time=13>,\n",
       " <message note_off channel=3 note=59 velocity=0 time=412>,\n",
       " <message note_on channel=3 note=58 velocity=118 time=13>,\n",
       " <message note_off channel=3 note=58 velocity=0 time=188>,\n",
       " <message note_on channel=3 note=54 velocity=118 time=11>,\n",
       " <message note_off channel=3 note=54 velocity=0 time=319>,\n",
       " <message note_on channel=3 note=56 velocity=118 time=97>,\n",
       " <message note_off channel=3 note=56 velocity=0 time=165>,\n",
       " <message note_on channel=3 note=58 velocity=119 time=17>,\n",
       " <message note_off channel=3 note=58 velocity=0 time=373>,\n",
       " <message note_on channel=3 note=58 velocity=115 time=25>,\n",
       " <message note_off channel=3 note=58 velocity=0 time=396>,\n",
       " <message note_on channel=3 note=56 velocity=117 time=15>,\n",
       " <message note_off channel=3 note=56 velocity=0 time=192>,\n",
       " <message note_on channel=3 note=54 velocity=119 time=10>,\n",
       " <message note_off channel=3 note=54 velocity=0 time=354>,\n",
       " <message note_on channel=3 note=56 velocity=119 time=28>,\n",
       " <message note_off channel=3 note=56 velocity=0 time=846>,\n",
       " <message note_on channel=3 note=58 velocity=117 time=20>,\n",
       " <message note_off channel=3 note=58 velocity=0 time=777>,\n",
       " <message note_on channel=3 note=61 velocity=117 time=518>,\n",
       " <message note_off channel=3 note=61 velocity=0 time=412>,\n",
       " <message note_on channel=3 note=58 velocity=118 time=13>,\n",
       " <message note_off channel=3 note=58 velocity=0 time=135>,\n",
       " <message note_on channel=3 note=58 velocity=96 time=25>,\n",
       " <message note_off channel=3 note=58 velocity=0 time=196>,\n",
       " <message note_on channel=3 note=56 velocity=118 time=9>,\n",
       " <message note_off channel=3 note=56 velocity=0 time=362>,\n",
       " <message note_on channel=3 note=54 velocity=118 time=28>,\n",
       " <message note_off channel=3 note=54 velocity=0 time=162>,\n",
       " <message note_on channel=3 note=54 velocity=118 time=16>,\n",
       " <message note_off channel=3 note=54 velocity=0 time=177>,\n",
       " <message note_on channel=3 note=61 velocity=115 time=14>,\n",
       " <message note_off channel=3 note=61 velocity=0 time=185>,\n",
       " <message note_on channel=3 note=61 velocity=115 time=12>,\n",
       " <message note_off channel=3 note=61 velocity=0 time=177>,\n",
       " <message note_on channel=3 note=58 velocity=114 time=14>,\n",
       " <message note_off channel=3 note=58 velocity=0 time=358>,\n",
       " <message note_on channel=3 note=56 velocity=109 time=27>,\n",
       " <message note_off channel=3 note=56 velocity=0 time=177>,\n",
       " <message note_on channel=3 note=58 velocity=106 time=16>,\n",
       " <message note_off channel=3 note=58 velocity=0 time=404>,\n",
       " <message note_on channel=3 note=56 velocity=114 time=15>,\n",
       " <message note_off channel=3 note=56 velocity=0 time=396>,\n",
       " <message note_on channel=3 note=56 velocity=113 time=15>,\n",
       " <message note_off channel=3 note=56 velocity=0 time=181>,\n",
       " <message note_on channel=3 note=61 velocity=119 time=13>,\n",
       " <message note_off channel=3 note=61 velocity=0 time=123>,\n",
       " <message note_on channel=3 note=61 velocity=101 time=28>,\n",
       " <message note_off channel=3 note=61 velocity=0 time=177>,\n",
       " <message note_on channel=3 note=58 velocity=117 time=14>,\n",
       " <message note_off channel=3 note=58 velocity=0 time=138>,\n",
       " <message note_on channel=3 note=58 velocity=117 time=24>,\n",
       " <message note_off channel=3 note=58 velocity=0 time=181>,\n",
       " <message note_on channel=3 note=56 velocity=115 time=13>,\n",
       " <message note_off channel=3 note=56 velocity=0 time=162>,\n",
       " <message note_on channel=3 note=56 velocity=115 time=18>,\n",
       " <message note_off channel=3 note=56 velocity=0 time=181>,\n",
       " <message note_on channel=3 note=61 velocity=118 time=13>,\n",
       " <message note_off channel=3 note=61 velocity=0 time=127>,\n",
       " <message note_on channel=3 note=61 velocity=106 time=27>,\n",
       " <message note_off channel=3 note=61 velocity=0 time=158>,\n",
       " <message note_on channel=3 note=58 velocity=118 time=19>,\n",
       " <message note_off channel=3 note=58 velocity=0 time=412>,\n",
       " <message note_on channel=3 note=56 velocity=115 time=13>,\n",
       " <message note_off channel=3 note=56 velocity=0 time=212>,\n",
       " <message note_on channel=3 note=58 velocity=115 time=5>,\n",
       " <message note_off channel=3 note=58 velocity=0 time=423>,\n",
       " <message note_on channel=3 note=56 velocity=115 time=10>,\n",
       " <message note_off channel=3 note=56 velocity=0 time=369>,\n",
       " <message note_on channel=3 note=54 velocity=113 time=24>,\n",
       " <message note_off channel=3 note=54 velocity=0 time=162>,\n",
       " <message note_on channel=3 note=59 velocity=115 time=18>,\n",
       " <message note_off channel=3 note=59 velocity=0 time=404>,\n",
       " <message note_on channel=3 note=58 velocity=113 time=15>,\n",
       " <message note_off channel=3 note=58 velocity=0 time=223>,\n",
       " <message note_on channel=3 note=54 velocity=113 time=2>,\n",
       " <message note_off channel=3 note=54 velocity=0 time=400>,\n",
       " <message note_on channel=3 note=56 velocity=117 time=76>,\n",
       " <message note_off channel=3 note=56 velocity=0 time=212>,\n",
       " <message note_on channel=3 note=58 velocity=115 time=7>,\n",
       " <message note_off channel=3 note=58 velocity=0 time=358>,\n",
       " <message note_on channel=3 note=58 velocity=117 time=27>,\n",
       " <message note_off channel=3 note=58 velocity=0 time=381>,\n",
       " <message note_on channel=3 note=56 velocity=106 time=19>,\n",
       " <message note_off channel=3 note=56 velocity=0 time=208>,\n",
       " <message note_on channel=3 note=54 velocity=115 time=6>,\n",
       " <message note_off channel=3 note=54 velocity=0 time=358>,\n",
       " <message note_on channel=3 note=56 velocity=117 time=27>,\n",
       " <message note_off channel=3 note=56 velocity=0 time=865>,\n",
       " <message note_on channel=3 note=58 velocity=115 time=15>,\n",
       " <message note_off channel=3 note=58 velocity=0 time=1031>,\n",
       " <message note_on channel=3 note=61 velocity=115 time=392>,\n",
       " <message note_off channel=3 note=61 velocity=0 time=212>,\n",
       " <message note_on channel=3 note=63 velocity=115 time=5>,\n",
       " <message note_off channel=3 note=63 velocity=0 time=419>,\n",
       " <message note_on channel=3 note=66 velocity=117 time=11>,\n",
       " <message note_off channel=3 note=66 velocity=0 time=392>,\n",
       " <message note_on channel=3 note=68 velocity=117 time=18>,\n",
       " <message note_off channel=3 note=68 velocity=0 time=385>,\n",
       " <message note_on channel=3 note=66 velocity=113 time=20>,\n",
       " <message note_off channel=3 note=66 velocity=0 time=350>,\n",
       " <message note_on channel=3 note=63 velocity=115 time=29>,\n",
       " <message note_off channel=3 note=63 velocity=0 time=396>,\n",
       " <message note_on channel=3 note=66 velocity=113 time=17>,\n",
       " <message note_off channel=3 note=66 velocity=0 time=388>,\n",
       " <message note_on channel=3 note=68 velocity=103 time=19>,\n",
       " <message note_off channel=3 note=68 velocity=0 time=392>,\n",
       " <message note_on channel=3 note=66 velocity=119 time=18>,\n",
       " <message note_off channel=3 note=66 velocity=0 time=350>,\n",
       " <message note_on channel=3 note=61 velocity=118 time=29>,\n",
       " <message note_off channel=3 note=61 velocity=0 time=435>,\n",
       " <message note_on channel=3 note=66 velocity=117 time=7>,\n",
       " <message note_off channel=3 note=66 velocity=0 time=385>,\n",
       " <message note_on channel=3 note=66 velocity=115 time=20>,\n",
       " <message note_off channel=3 note=66 velocity=0 time=192>,\n",
       " <message note_on channel=3 note=68 velocity=114 time=10>,\n",
       " <message note_off channel=3 note=68 velocity=0 time=165>,\n",
       " <message note_on channel=3 note=66 velocity=109 time=19>,\n",
       " <message note_off channel=3 note=66 velocity=0 time=369>,\n",
       " <message note_on channel=3 note=68 velocity=115 time=22>,\n",
       " <message note_off channel=3 note=68 velocity=0 time=369>,\n",
       " <message note_on channel=3 note=68 velocity=115 time=24>,\n",
       " <message note_off channel=3 note=68 velocity=0 time=208>,\n",
       " <message note_on channel=3 note=70 velocity=118 time=6>,\n",
       " <message note_off channel=3 note=70 velocity=0 time=204>,\n",
       " <message note_on channel=3 note=68 velocity=115 time=7>,\n",
       " <message note_off channel=3 note=68 velocity=0 time=392>,\n",
       " <message note_on channel=3 note=66 velocity=113 time=18>,\n",
       " <message note_off channel=3 note=66 velocity=0 time=412>,\n",
       " <message note_on channel=3 note=63 velocity=117 time=13>,\n",
       " <message note_off channel=3 note=63 velocity=0 time=188>,\n",
       " <message note_on channel=3 note=66 velocity=115 time=11>,\n",
       " <message note_off channel=3 note=66 velocity=0 time=96>,\n",
       " <message note_on channel=3 note=66 velocity=115 time=7>,\n",
       " <message note_off channel=3 note=66 velocity=0 time=96>,\n",
       " <message note_on channel=3 note=66 velocity=115 time=3>,\n",
       " <message note_off channel=3 note=66 velocity=0 time=196>,\n",
       " <message note_on channel=3 note=63 velocity=115 time=9>,\n",
       " <message note_off channel=3 note=63 velocity=0 time=204>,\n",
       " <message note_on channel=3 note=68 velocity=113 time=7>,\n",
       " <message note_off channel=3 note=68 velocity=0 time=327>,\n",
       " <message note_on channel=3 note=61 velocity=115 time=35>,\n",
       " <message note_off channel=3 note=61 velocity=0 time=196>,\n",
       " <message note_on channel=3 note=61 velocity=114 time=9>,\n",
       " <message note_off channel=3 note=61 velocity=0 time=200>,\n",
       " <message note_on channel=3 note=63 velocity=122 time=8>,\n",
       " <message note_off channel=3 note=63 velocity=0 time=204>,\n",
       " <message note_on channel=3 note=66 velocity=119 time=7>,\n",
       " <message note_off channel=3 note=66 velocity=0 time=192>,\n",
       " <message note_on channel=3 note=63 velocity=117 time=10>,\n",
       " <message note_off channel=3 note=63 velocity=0 time=212>,\n",
       " <message note_on channel=3 note=66 velocity=115 time=5>,\n",
       " <message note_off channel=3 note=66 velocity=0 time=365>,\n",
       " <message note_on channel=3 note=63 velocity=118 time=27>,\n",
       " <message note_off channel=3 note=63 velocity=0 time=165>,\n",
       " <message note_on channel=3 note=66 velocity=117 time=15>,\n",
       " <message note_off channel=3 note=66 velocity=0 time=169>,\n",
       " <message note_on channel=3 note=63 velocity=117 time=18>,\n",
       " <message note_off channel=3 note=63 velocity=0 time=154>,\n",
       " <message note_on channel=3 note=70 velocity=114 time=78>,\n",
       " <message note_off channel=3 note=70 velocity=0 time=192>,\n",
       " <message note_on channel=3 note=68 velocity=114 time=10>,\n",
       " <message note_off channel=3 note=68 velocity=0 time=169>,\n",
       " <message note_on channel=3 note=68 velocity=114 time=16>,\n",
       " <message note_off channel=3 note=68 velocity=0 time=346>,\n",
       " <message note_on channel=3 note=66 velocity=117 time=30>,\n",
       " <message note_off channel=3 note=66 velocity=0 time=123>,\n",
       " <message note_on channel=3 note=66 velocity=103 time=28>,\n",
       " <message note_off channel=3 note=66 velocity=0 time=169>,\n",
       " <message note_on channel=3 note=70 velocity=117 time=16>,\n",
       " <message note_off channel=3 note=70 velocity=0 time=196>,\n",
       " <message note_on channel=3 note=68 velocity=119 time=9>,\n",
       " <message note_off channel=3 note=68 velocity=0 time=150>,\n",
       " <message note_on channel=3 note=66 velocity=115 time=21>,\n",
       " <message note_off channel=3 note=66 velocity=0 time=119>,\n",
       " <message note_on channel=3 note=66 velocity=115 time=29>,\n",
       " <message note_off channel=3 note=66 velocity=0 time=319>,\n",
       " <message note_on channel=3 note=68 velocity=117 time=37>,\n",
       " <message note_off channel=3 note=68 velocity=0 time=196>,\n",
       " <message note_on channel=3 note=66 velocity=119 time=9>,\n",
       " <message note_off channel=3 note=66 velocity=0 time=177>,\n",
       " <message note_on channel=3 note=66 velocity=117 time=14>,\n",
       " <message note_off channel=3 note=66 velocity=0 time=196>,\n",
       " <message note_on channel=3 note=68 velocity=114 time=9>,\n",
       " <message note_off channel=3 note=68 velocity=0 time=192>,\n",
       " <message note_on channel=3 note=70 velocity=115 time=12>,\n",
       " <message note_off channel=3 note=70 velocity=0 time=381>,\n",
       " <message note_on channel=3 note=68 velocity=106 time=19>,\n",
       " <message note_off channel=3 note=68 velocity=0 time=204>,\n",
       " <message note_on channel=3 note=70 velocity=113 time=8>,\n",
       " <message note_off channel=3 note=70 velocity=0 time=592>,\n",
       " <message note_on channel=3 note=68 velocity=109 time=25>,\n",
       " <message note_off channel=3 note=68 velocity=0 time=185>,\n",
       " <message note_on channel=3 note=70 velocity=117 time=14>,\n",
       " <message note_off channel=3 note=70 velocity=0 time=404>,\n",
       " <message note_on channel=3 note=68 velocity=109 time=15>,\n",
       " <message note_off channel=3 note=68 velocity=0 time=165>,\n",
       " <message note_on channel=3 note=70 velocity=115 time=17>,\n",
       " <message note_off channel=3 note=70 velocity=0 time=135>,\n",
       " <message note_on channel=3 note=70 velocity=118 time=23>,\n",
       " <message note_off channel=3 note=70 velocity=0 time=223>,\n",
       " <message note_on channel=3 note=68 velocity=119 time=2>,\n",
       " <message note_off channel=3 note=68 velocity=0 time=446>,\n",
       " <message note_on channel=3 note=66 velocity=117 time=4>,\n",
       " <message note_off channel=3 note=66 velocity=0 time=377>,\n",
       " <message note_on channel=3 note=70 velocity=115 time=22>,\n",
       " <message note_off channel=3 note=70 velocity=0 time=400>,\n",
       " <message note_on channel=3 note=68 velocity=118 time=18>,\n",
       " <message note_off channel=3 note=68 velocity=0 time=185>,\n",
       " <message note_on channel=3 note=70 velocity=117 time=12>,\n",
       " <message note_off channel=3 note=70 velocity=0 time=523>,\n",
       " <message note_on channel=3 note=68 velocity=118 time=41>,\n",
       " <message note_off channel=3 note=68 velocity=0 time=196>,\n",
       " <message note_on channel=3 note=70 velocity=115 time=10>,\n",
       " <message note_off channel=3 note=70 velocity=0 time=373>,\n",
       " <message note_on channel=3 note=68 velocity=115 time=24>,\n",
       " <message note_off channel=3 note=68 velocity=0 time=181>,\n",
       " <message note_on channel=3 note=70 velocity=115 time=14>,\n",
       " <message note_off channel=3 note=70 velocity=0 time=373>,\n",
       " <message note_on channel=3 note=68 velocity=115 time=22>,\n",
       " <message note_off channel=3 note=68 velocity=0 time=400>,\n",
       " <message note_on channel=3 note=66 velocity=115 time=15>,\n",
       " <message note_off channel=3 note=66 velocity=0 time=385>,\n",
       " <message note_on channel=3 note=71 velocity=117 time=20>,\n",
       " <message note_off channel=3 note=71 velocity=0 time=646>,\n",
       " <message note_on channel=3 note=70 velocity=118 time=14>,\n",
       " <message note_off channel=3 note=70 velocity=0 time=373>,\n",
       " <message note_on channel=3 note=63 velocity=114 time=81>,\n",
       " <message note_off channel=3 note=63 velocity=0 time=785>,\n",
       " <message note_on channel=3 note=66 velocity=114 time=36>,\n",
       " <message note_off channel=3 note=66 velocity=0 time=135>,\n",
       " <message note_on channel=3 note=66 velocity=117 time=25>,\n",
       " <message note_off channel=3 note=66 velocity=0 time=127>,\n",
       " <message note_on channel=3 note=66 velocity=115 time=27>,\n",
       " <message note_off channel=3 note=66 velocity=0 time=196>,\n",
       " <message note_on channel=3 note=63 velocity=115 time=9>,\n",
       " <message note_off channel=3 note=63 velocity=0 time=204>,\n",
       " <message note_on channel=3 note=61 velocity=115 time=7>,\n",
       " <message note_off channel=3 note=61 velocity=0 time=388>,\n",
       " <message note_on channel=3 note=71 velocity=118 time=19>,\n",
       " <message note_off channel=3 note=71 velocity=0 time=650>,\n",
       " <message note_on channel=3 note=70 velocity=114 time=42>,\n",
       " <message note_off channel=3 note=70 velocity=0 time=581>,\n",
       " <message note_on channel=3 note=59 velocity=115 time=29>,\n",
       " <message note_off channel=3 note=59 velocity=0 time=835>,\n",
       " <message note_on channel=3 note=59 velocity=117 time=23>,\n",
       " <message note_off channel=3 note=59 velocity=0 time=119>,\n",
       " <message note_on channel=3 note=59 velocity=117 time=29>,\n",
       " <message note_off channel=3 note=59 velocity=0 time=123>,\n",
       " <message note_on channel=3 note=59 velocity=117 time=28>,\n",
       " <message note_off channel=3 note=59 velocity=0 time=419>,\n",
       " <message note_on channel=3 note=58 velocity=117 time=11>,\n",
       " <message note_off channel=3 note=58 velocity=0 time=150>,\n",
       " <message note_on channel=3 note=58 velocity=117 time=21>,\n",
       " <message note_off channel=3 note=58 velocity=0 time=819>,\n",
       " <message note_on channel=3 note=61 velocity=118 time=807>,\n",
       " <message note_off channel=3 note=61 velocity=0 time=381>,\n",
       " <message note_on channel=3 note=58 velocity=115 time=21>,\n",
       " <message note_off channel=3 note=58 velocity=0 time=123>,\n",
       " <message note_on channel=3 note=58 velocity=113 time=28>,\n",
       " <message note_off channel=3 note=58 velocity=0 time=188>,\n",
       " <message note_on channel=3 note=56 velocity=118 time=11>,\n",
       " <message note_off channel=3 note=56 velocity=0 time=431>,\n",
       " <message note_on channel=3 note=54 velocity=113 time=10>,\n",
       " <message note_off channel=3 note=54 velocity=0 time=188>,\n",
       " <message note_on channel=3 note=61 velocity=118 time=11>,\n",
       " <message note_off channel=3 note=61 velocity=0 time=346>,\n",
       " <message note_on channel=3 note=61 velocity=115 time=28>,\n",
       " <message note_off channel=3 note=61 velocity=0 time=185>,\n",
       " <message note_on channel=3 note=58 velocity=114 time=12>,\n",
       " <message note_off channel=3 note=58 velocity=0 time=123>,\n",
       " <message note_on channel=3 note=58 velocity=118 time=28>,\n",
       " <message note_off channel=3 note=58 velocity=0 time=181>,\n",
       " <message note_on channel=3 note=56 velocity=118 time=13>,\n",
       " <message note_off channel=3 note=56 velocity=0 time=196>,\n",
       " <message note_on channel=3 note=58 velocity=114 time=9>,\n",
       " <message note_off channel=3 note=58 velocity=0 time=412>,\n",
       " <message note_on channel=3 note=56 velocity=115 time=13>,\n",
       " <message note_off channel=3 note=56 velocity=0 time=438>,\n",
       " <message note_on channel=3 note=56 velocity=113 time=6>,\n",
       " <message note_off channel=3 note=56 velocity=0 time=181>,\n",
       " <message note_on channel=3 note=61 velocity=112 time=13>,\n",
       " <message note_off channel=3 note=61 velocity=0 time=131>,\n",
       " <message note_on channel=3 note=61 velocity=109 time=26>,\n",
       " <message note_off channel=3 note=61 velocity=0 time=169>,\n",
       " <message note_on channel=3 note=58 velocity=115 time=16>,\n",
       " <message note_off channel=3 note=58 velocity=0 time=108>,\n",
       " <message note_on channel=3 note=58 velocity=114 time=32>,\n",
       " <message note_off channel=3 note=58 velocity=0 time=181>,\n",
       " <message note_on channel=3 note=56 velocity=117 time=13>,\n",
       " <message note_off channel=3 note=56 velocity=0 time=138>,\n",
       " <message note_on channel=3 note=56 velocity=115 time=24>,\n",
       " <message note_off channel=3 note=56 velocity=0 time=154>,\n",
       " <message note_on channel=3 note=61 velocity=117 time=20>,\n",
       " <message note_off channel=3 note=61 velocity=0 time=200>,\n",
       " <message note_on channel=3 note=58 velocity=115 time=8>,\n",
       " <message note_off channel=3 note=58 velocity=0 time=250>,\n",
       " <message note_on channel=3 note=56 velocity=119 time=55>,\n",
       " <message note_off channel=3 note=56 velocity=0 time=323>,\n",
       " <message note_on channel=3 note=58 velocity=114 time=36>,\n",
       " <message note_off channel=3 note=58 velocity=0 time=358>,\n",
       " <message note_on channel=3 note=56 velocity=114 time=27>,\n",
       " <message note_off channel=3 note=56 velocity=0 time=623>,\n",
       " <message note_on channel=3 note=59 velocity=117 time=18>,\n",
       " <message note_off channel=3 note=59 velocity=0 time=196>,\n",
       " <message note_on channel=3 note=58 velocity=115 time=9>,\n",
       " <message note_off channel=3 note=58 velocity=0 time=196>,\n",
       " <message note_on channel=3 note=59 velocity=117 time=9>,\n",
       " <message note_off channel=3 note=59 velocity=0 time=185>,\n",
       " <message note_on channel=3 note=58 velocity=122 time=12>,\n",
       " <message note_off channel=3 note=58 velocity=0 time=154>,\n",
       " <message note_on channel=3 note=59 velocity=119 time=20>,\n",
       " <message note_off channel=3 note=59 velocity=0 time=196>,\n",
       " <message note_on channel=3 note=58 velocity=117 time=9>,\n",
       " <message note_off channel=3 note=58 velocity=0 time=200>,\n",
       " <message note_on channel=3 note=59 velocity=115 time=10>,\n",
       " <message note_off channel=3 note=59 velocity=0 time=242>,\n",
       " <message note_on channel=3 note=59 velocity=115 time=56>,\n",
       " <message note_off channel=3 note=59 velocity=0 time=185>,\n",
       " <message note_on channel=3 note=61 velocity=114 time=11>,\n",
       " <message note_off channel=3 note=61 velocity=0 time=150>,\n",
       " <message note_on channel=3 note=63 velocity=114 time=21>,\n",
       " <message note_off channel=3 note=63 velocity=0 time=185>,\n",
       " <message note_on channel=3 note=66 velocity=114 time=12>,\n",
       " <message note_off channel=3 note=66 velocity=0 time=323>,\n",
       " <message note_on channel=3 note=68 velocity=117 time=36>,\n",
       " <message note_off channel=3 note=68 velocity=0 time=465>,\n",
       " <message note_on channel=3 note=66 velocity=115 time=119>,\n",
       " <message note_off channel=3 note=66 velocity=0 time=131>,\n",
       " <message note_on channel=3 note=66 velocity=115 time=26>,\n",
       " <message note_off channel=3 note=66 velocity=0 time=204>,\n",
       " <message note_on channel=3 note=68 velocity=104 time=7>,\n",
       " <message note_off channel=3 note=68 velocity=0 time=200>,\n",
       " <message note_on channel=3 note=66 velocity=115 time=8>,\n",
       " <message note_off channel=3 note=66 velocity=0 time=415>,\n",
       " <message note_on channel=3 note=71 velocity=118 time=12>,\n",
       " <message note_off channel=3 note=71 velocity=0 time=438>,\n",
       " <message note_on channel=3 note=70 velocity=119 time=6>,\n",
       " <message note_off channel=3 note=70 velocity=0 time=181>,\n",
       " <message note_on channel=3 note=68 velocity=117 time=13>,\n",
       " <message note_off channel=3 note=68 velocity=0 time=177>,\n",
       " <message note_on channel=3 note=68 velocity=117 time=58>,\n",
       " <message note_off channel=3 note=68 velocity=0 time=185>,\n",
       " <message note_on channel=3 note=66 velocity=118 time=13>,\n",
       " <message note_off channel=3 note=66 velocity=0 time=342>,\n",
       " <message note_on channel=3 note=65 velocity=113 time=31>,\n",
       " <message note_off channel=3 note=65 velocity=0 time=200>,\n",
       " <message note_on channel=3 note=66 velocity=115 time=7>,\n",
       " <message note_off channel=3 note=66 velocity=0 time=315>,\n",
       " <message note_on channel=3 note=61 velocity=119 time=37>,\n",
       " <message note_off channel=3 note=61 velocity=0 time=154>,\n",
       " <message note_on channel=3 note=61 velocity=117 time=20>,\n",
       " <message note_off channel=3 note=61 velocity=0 time=181>,\n",
       " <message note_on channel=3 note=58 velocity=117 time=13>,\n",
       " <message note_off channel=3 note=58 velocity=0 time=408>,\n",
       " <message note_on channel=3 note=56 velocity=117 time=15>,\n",
       " <message note_off channel=3 note=56 velocity=0 time=200>,\n",
       " <message note_on channel=3 note=54 velocity=117 time=7>,\n",
       " <message note_off channel=3 note=54 velocity=0 time=173>,\n",
       " <message note_on channel=3 note=61 velocity=117 time=15>,\n",
       " <message note_off channel=3 note=61 velocity=0 time=192>,\n",
       " <message note_on channel=3 note=58 velocity=115 time=12>,\n",
       " <message note_off channel=3 note=58 velocity=0 time=227>,\n",
       " <message note_on channel=3 note=56 velocity=115 time=61>,\n",
       " <message note_off channel=3 note=56 velocity=0 time=304>,\n",
       " <message note_on channel=3 note=58 velocity=114 time=41>,\n",
       " <message note_off channel=3 note=58 velocity=0 time=396>,\n",
       " <message note_on channel=3 note=56 velocity=117 time=15>,\n",
       " <message note_off channel=3 note=56 velocity=0 time=415>,\n",
       " <message note_on channel=3 note=56 velocity=115 time=12>,\n",
       " <message note_off channel=3 note=56 velocity=0 time=204>,\n",
       " <message note_on channel=3 note=61 velocity=114 time=7>,\n",
       " <message note_off channel=3 note=61 velocity=0 time=158>,\n",
       " <message note_on channel=3 note=61 velocity=114 time=19>,\n",
       " <message note_off channel=3 note=61 velocity=0 time=185>,\n",
       " <message note_on channel=3 note=58 velocity=114 time=12>,\n",
       " <message note_off channel=3 note=58 velocity=0 time=142>,\n",
       " <message note_on channel=3 note=58 velocity=115 time=23>,\n",
       " <message note_off channel=3 note=58 velocity=0 time=181>,\n",
       " <message note_on channel=3 note=56 velocity=115 time=13>,\n",
       " <message note_off channel=3 note=56 velocity=0 time=150>,\n",
       " <message note_on channel=3 note=56 velocity=117 time=21>,\n",
       " <message note_off channel=3 note=56 velocity=0 time=188>,\n",
       " <message note_on channel=3 note=61 velocity=115 time=11>,\n",
       " <message note_off channel=3 note=61 velocity=0 time=373>,\n",
       " <message note_on channel=3 note=58 velocity=115 time=23>,\n",
       " <message note_off channel=3 note=58 velocity=0 time=188>,\n",
       " <message note_on channel=3 note=58 velocity=117 time=11>,\n",
       " <message note_off channel=3 note=58 velocity=0 time=196>,\n",
       " <message note_on channel=3 note=56 velocity=117 time=9>,\n",
       " <message note_off channel=3 note=56 velocity=0 time=196>,\n",
       " <message note_on channel=3 note=58 velocity=117 time=11>,\n",
       " <message note_off channel=3 note=58 velocity=0 time=338>,\n",
       " <message note_on channel=3 note=56 velocity=115 time=30>,\n",
       " <message note_off channel=3 note=56 velocity=0 time=408>,\n",
       " <message note_on channel=3 note=56 velocity=119 time=14>,\n",
       " <message note_off channel=3 note=56 velocity=0 time=165>,\n",
       " <message note_on channel=3 note=56 velocity=115 time=17>,\n",
       " <message note_off channel=3 note=56 velocity=0 time=135>,\n",
       " <message note_on channel=3 note=56 velocity=118 time=25>,\n",
       " <message note_off channel=3 note=56 velocity=0 time=119>,\n",
       " <message note_on channel=3 note=56 velocity=115 time=29>,\n",
       " <message note_off channel=3 note=56 velocity=0 time=204>,\n",
       " <message note_on channel=3 note=58 velocity=113 time=7>,\n",
       " <message note_off channel=3 note=58 velocity=0 time=212>,\n",
       " <message note_on channel=3 note=59 velocity=113 time=5>,\n",
       " <message note_off channel=3 note=59 velocity=0 time=188>,\n",
       " <message note_on channel=3 note=61 velocity=114 time=11>,\n",
       " <message note_off channel=3 note=61 velocity=0 time=162>,\n",
       " <message note_on channel=3 note=63 velocity=112 time=18>,\n",
       " <message note_off channel=3 note=63 velocity=0 time=142>,\n",
       " <message note_on channel=3 note=63 velocity=113 time=23>,\n",
       " <message note_off channel=3 note=63 velocity=0 time=219>,\n",
       " <message note_on channel=3 note=70 velocity=111 time=3>,\n",
       " <message note_off channel=3 note=70 velocity=0 time=354>,\n",
       " <message note_on channel=3 note=68 velocity=115 time=28>,\n",
       " <message note_off channel=3 note=68 velocity=0 time=562>,\n",
       " <message note_on channel=3 note=56 velocity=119 time=154>,\n",
       " <message note_off channel=3 note=56 velocity=0 time=150>,\n",
       " <message note_on channel=3 note=56 velocity=118 time=23>,\n",
       " <message note_off channel=3 note=56 velocity=0 time=123>,\n",
       " <message note_on channel=3 note=56 velocity=118 time=26>,\n",
       " <message note_off channel=3 note=56 velocity=0 time=119>,\n",
       " <message note_on channel=3 note=56 velocity=118 time=29>,\n",
       " <message note_off channel=3 note=56 velocity=0 time=192>,\n",
       " <message note_on channel=3 note=58 velocity=119 time=10>,\n",
       " <message note_off channel=3 note=58 velocity=0 time=181>,\n",
       " <message note_on channel=3 note=59 velocity=106 time=13>,\n",
       " <message note_off channel=3 note=59 velocity=0 time=181>,\n",
       " <message note_on channel=3 note=61 velocity=114 time=13>,\n",
       " <message note_off channel=3 note=61 velocity=0 time=177>,\n",
       " <message note_on channel=3 note=63 velocity=114 time=14>,\n",
       " <message note_off channel=3 note=63 velocity=0 time=404>,\n",
       " <message note_on channel=3 note=70 velocity=115 time=15>,\n",
       " <message note_off channel=3 note=70 velocity=0 time=373>,\n",
       " <message note_on channel=3 note=68 velocity=118 time=23>,\n",
       " <message note_off channel=3 note=68 velocity=0 time=704>,\n",
       " <message note_on channel=3 note=63 velocity=117 time=57>,\n",
       " <message note_off channel=3 note=63 velocity=0 time=431>,\n",
       " <message note_on channel=3 note=66 velocity=117 time=9>,\n",
       " <message note_off channel=3 note=66 velocity=0 time=358>,\n",
       " <message note_on channel=3 note=68 velocity=118 time=26>,\n",
       " <message note_off channel=3 note=68 velocity=0 time=423>,\n",
       " <message note_on channel=3 note=66 velocity=115 time=10>,\n",
       " <message note_off channel=3 note=66 velocity=0 time=373>,\n",
       " <message note_on channel=3 note=63 velocity=113 time=23>,\n",
       " <message note_off channel=3 note=63 velocity=0 time=450>,\n",
       " <message note_on channel=3 note=66 velocity=115 time=3>,\n",
       " <message note_off channel=3 note=66 velocity=0 time=388>,\n",
       " <message note_on channel=3 note=68 velocity=122 time=19>,\n",
       " <message note_off channel=3 note=68 velocity=0 time=419>,\n",
       " <message note_on channel=3 note=66 velocity=113 time=12>,\n",
       " <message note_off channel=3 note=66 velocity=0 time=377>,\n",
       " <message note_on channel=3 note=61 velocity=113 time=21>,\n",
       " <message note_off channel=3 note=61 velocity=0 time=412>,\n",
       " <message note_on channel=3 note=66 velocity=114 time=14>,\n",
       " <message note_off channel=3 note=66 velocity=0 time=323>,\n",
       " <message note_on channel=3 note=66 velocity=115 time=35>,\n",
       " <message note_off channel=3 note=66 velocity=0 time=158>,\n",
       " <message note_on channel=3 note=68 velocity=104 time=19>,\n",
       " <message note_off channel=3 note=68 velocity=0 time=173>,\n",
       " <message note_on channel=3 note=66 velocity=115 time=15>,\n",
       " <message note_off channel=3 note=66 velocity=0 time=350>,\n",
       " <message note_on channel=3 note=68 velocity=114 time=29>,\n",
       " <message note_off channel=3 note=68 velocity=0 time=369>,\n",
       " <message note_on channel=3 note=68 velocity=117 time=24>,\n",
       " <message note_off channel=3 note=68 velocity=0 time=219>,\n",
       " <message note_on channel=3 note=70 velocity=113 time=3>,\n",
       " <message note_off channel=3 note=70 velocity=0 time=165>,\n",
       " <message note_on channel=3 note=68 velocity=117 time=17>,\n",
       " <message note_off channel=3 note=68 velocity=0 time=392>,\n",
       " <message note_on channel=3 note=66 velocity=115 time=18>,\n",
       " <message note_off channel=3 note=66 velocity=0 time=404>,\n",
       " <message note_on channel=3 note=63 velocity=118 time=15>,\n",
       " <message note_off channel=3 note=63 velocity=0 time=185>,\n",
       " <message note_on channel=3 note=66 velocity=119 time=12>,\n",
       " <message note_off channel=3 note=66 velocity=0 time=96>,\n",
       " <message note_on channel=3 note=66 velocity=119 time=5>,\n",
       " <message note_off channel=3 note=66 velocity=0 time=96>,\n",
       " <message note_on channel=3 note=66 velocity=114 time=5>,\n",
       " <message note_off channel=3 note=66 velocity=0 time=192>,\n",
       " <message note_on channel=3 note=63 velocity=106 time=12>,\n",
       " <message note_off channel=3 note=63 velocity=0 time=185>,\n",
       " <message note_on channel=3 note=68 velocity=118 time=10>,\n",
       " <message note_off channel=3 note=68 velocity=0 time=292>,\n",
       " <message note_on channel=3 note=61 velocity=115 time=44>,\n",
       " <message note_off channel=3 note=61 velocity=0 time=135>,\n",
       " <message note_on channel=3 note=61 velocity=114 time=25>,\n",
       " <message note_off channel=3 note=61 velocity=0 time=192>,\n",
       " <message note_on channel=3 note=63 velocity=113 time=10>,\n",
       " <message note_off channel=3 note=63 velocity=0 time=165>,\n",
       " <message note_on channel=3 note=66 velocity=109 time=17>,\n",
       " <message note_off channel=3 note=66 velocity=0 time=165>,\n",
       " <message note_on channel=3 note=63 velocity=112 time=17>,\n",
       " <message note_off channel=3 note=63 velocity=0 time=173>,\n",
       " <message note_on channel=3 note=66 velocity=115 time=15>,\n",
       " <message note_off channel=3 note=66 velocity=0 time=423>,\n",
       " <message note_on channel=3 note=63 velocity=120 time=10>,\n",
       " <message note_off channel=3 note=63 velocity=0 time=177>,\n",
       " <message note_on channel=3 note=66 velocity=114 time=14>,\n",
       " <message note_off channel=3 note=66 velocity=0 time=135>,\n",
       " <message note_on channel=3 note=66 velocity=117 time=25>,\n",
       " <message note_off channel=3 note=66 velocity=0 time=169>,\n",
       " <message note_on channel=3 note=70 velocity=115 time=76>,\n",
       " <message note_off channel=3 note=70 velocity=0 time=158>,\n",
       " <message note_on channel=3 note=68 velocity=115 time=19>,\n",
       " <message note_off channel=3 note=68 velocity=0 time=115>,\n",
       " <message note_on channel=3 note=68 velocity=115 time=30>,\n",
       " <message note_off channel=3 note=68 velocity=0 time=319>,\n",
       " <message note_on channel=3 note=66 velocity=115 time=37>,\n",
       " <message note_off channel=3 note=66 velocity=0 time=100>,\n",
       " <message note_on channel=3 note=66 velocity=115 time=34>,\n",
       " <message note_off channel=3 note=66 velocity=0 time=177>,\n",
       " <message note_on channel=3 note=69 velocity=114 time=14>,\n",
       " <message note_off channel=3 note=69 velocity=0 time=192>,\n",
       " <message note_on channel=3 note=68 velocity=115 time=10>,\n",
       " <message note_off channel=3 note=68 velocity=0 time=215>,\n",
       " <message note_on channel=3 note=66 velocity=109 time=4>,\n",
       " <message note_off channel=3 note=66 velocity=0 time=138>,\n",
       " <message note_on channel=3 note=66 velocity=117 time=24>,\n",
       " <message note_off channel=3 note=66 velocity=0 time=308>,\n",
       " <message note_on channel=3 note=68 velocity=119 time=40>,\n",
       " <message note_off channel=3 note=68 velocity=0 time=215>,\n",
       " <message note_on channel=3 note=66 velocity=117 time=4>,\n",
       " <message note_off channel=3 note=66 velocity=0 time=104>,\n",
       " <message note_on channel=3 note=66 velocity=119 time=33>,\n",
       " <message note_off channel=3 note=66 velocity=0 time=188>,\n",
       " <message note_on channel=3 note=68 velocity=118 time=11>,\n",
       " <message note_off channel=3 note=68 velocity=0 time=173>,\n",
       " <message note_on channel=3 note=70 velocity=114 time=15>,\n",
       " <message note_off channel=3 note=70 velocity=0 time=412>,\n",
       " <message note_on channel=3 note=68 velocity=109 time=13>,\n",
       " <message note_off channel=3 note=68 velocity=0 time=208>,\n",
       " <message note_on channel=3 note=70 velocity=115 time=6>,\n",
       " <message note_off channel=3 note=70 velocity=0 time=592>,\n",
       " <message note_on channel=3 note=68 velocity=119 time=26>,\n",
       " <message note_off channel=3 note=68 velocity=0 time=227>,\n",
       " <message note_on channel=3 note=70 velocity=117 time=3>,\n",
       " <message note_off channel=3 note=70 velocity=0 time=404>,\n",
       " <message note_on channel=3 note=68 velocity=118 time=15>,\n",
       " <message note_off channel=3 note=68 velocity=0 time=146>,\n",
       " <message note_on channel=3 note=70 velocity=115 time=22>,\n",
       " <message note_off channel=3 note=70 velocity=0 time=119>,\n",
       " <message note_on channel=3 note=70 velocity=115 time=27>,\n",
       " <message note_off channel=3 note=70 velocity=0 time=200>,\n",
       " <message note_on channel=3 note=68 velocity=117 time=8>,\n",
       " <message note_off channel=3 note=68 velocity=0 time=404>,\n",
       " <message note_on channel=3 note=66 velocity=119 time=15>,\n",
       " <message note_off channel=3 note=66 velocity=0 time=419>,\n",
       " <message note_on channel=3 note=70 velocity=115 time=11>,\n",
       " <message note_off channel=3 note=70 velocity=0 time=435>,\n",
       " <message note_on channel=3 note=68 velocity=113 time=9>,\n",
       " <message note_off channel=3 note=68 velocity=0 time=208>,\n",
       " <message note_on channel=3 note=70 velocity=117 time=6>,\n",
       " <message note_off channel=3 note=70 velocity=0 time=573>,\n",
       " <message note_on channel=3 note=68 velocity=104 time=29>,\n",
       " <message note_off channel=3 note=68 velocity=0 time=200>,\n",
       " <message note_on channel=3 note=70 velocity=115 time=8>,\n",
       " <message note_off channel=3 note=70 velocity=0 time=423>,\n",
       " <message note_on channel=3 note=68 velocity=114 time=10>,\n",
       " <message note_off channel=3 note=68 velocity=0 time=185>,\n",
       " <message note_on channel=3 note=70 velocity=117 time=12>,\n",
       " <message note_off channel=3 note=70 velocity=0 time=423>,\n",
       " <message note_on channel=3 note=68 velocity=115 time=10>,\n",
       " <message note_off channel=3 note=68 velocity=0 time=446>,\n",
       " <message note_on channel=3 note=66 velocity=119 time=4>,\n",
       " <message note_off channel=3 note=66 velocity=0 time=373>,\n",
       " <message note_on channel=3 note=71 velocity=118 time=23>,\n",
       " <message note_off channel=3 note=71 velocity=0 time=662>,\n",
       " <message note_on channel=3 note=70 velocity=118 time=8>,\n",
       " <message note_off channel=3 note=70 velocity=0 time=558>,\n",
       " <message note_on channel=3 note=63 velocity=118 time=35>,\n",
       " <message note_off channel=3 note=63 velocity=0 time=858>,\n",
       " <message note_on channel=3 note=66 velocity=114 time=17>,\n",
       " <message note_off channel=3 note=66 velocity=0 time=131>,\n",
       " <message note_on channel=3 note=66 velocity=114 time=26>,\n",
       " <message note_off channel=3 note=66 velocity=0 time=135>,\n",
       " <message note_on channel=3 note=66 velocity=118 time=25>,\n",
       " <message note_off channel=3 note=66 velocity=0 time=192>,\n",
       " <message note_on channel=3 note=63 velocity=118 time=10>,\n",
       " <message note_off channel=3 note=63 velocity=0 time=219>,\n",
       " <message note_on channel=3 note=61 velocity=119 time=3>,\n",
       " <message note_off channel=3 note=61 velocity=0 time=319>,\n",
       " <message note_on channel=3 note=71 velocity=117 time=37>,\n",
       " <message note_off channel=3 note=71 velocity=0 time=642>,\n",
       " <message note_on channel=3 note=70 velocity=115 time=50>,\n",
       " <message note_off channel=3 note=70 velocity=0 time=450>,\n",
       " <message note_on channel=3 note=59 velocity=117 time=242>,\n",
       " <message note_off channel=3 note=59 velocity=0 time=642>,\n",
       " <message note_on channel=3 note=61 velocity=119 time=13>,\n",
       " <message note_off channel=3 note=61 velocity=0 time=981>,\n",
       " <message note_on channel=3 note=70 velocity=117 time=164>,\n",
       " <message note_off channel=3 note=70 velocity=0 time=454>,\n",
       " <message note_on channel=3 note=68 velocity=117 time=3>,\n",
       " <message note_off channel=3 note=68 velocity=0 time=208>,\n",
       " <message note_on channel=3 note=70 velocity=117 time=6>,\n",
       " <message note_off channel=3 note=70 velocity=0 time=635>,\n",
       " <message note_on channel=3 note=68 velocity=114 time=14>,\n",
       " <message note_off channel=3 note=68 velocity=0 time=200>,\n",
       " <message note_on channel=3 note=70 velocity=118 time=9>,\n",
       " <message note_off channel=3 note=70 velocity=0 time=396>,\n",
       " <message note_on channel=3 note=68 velocity=117 time=18>,\n",
       " <message note_off channel=3 note=68 velocity=0 time=177>,\n",
       " <message note_on channel=3 note=70 velocity=114 time=14>,\n",
       " <message note_off channel=3 note=70 velocity=0 time=127>,\n",
       " <message note_on channel=3 note=70 velocity=114 time=26>,\n",
       " <message note_off channel=3 note=70 velocity=0 time=223>,\n",
       " <message note_on channel=3 note=68 velocity=117 time=2>,\n",
       " <message note_off channel=3 note=68 velocity=0 time=450>,\n",
       " <message note_on channel=3 note=66 velocity=118 time=3>,\n",
       " <message note_off channel=3 note=66 velocity=0 time=412>,\n",
       " <message note_on channel=3 note=70 velocity=117 time=13>,\n",
       " <message note_off channel=3 note=70 velocity=0 time=431>,\n",
       " <message note_on channel=3 note=68 velocity=109 time=8>,\n",
       " <message note_off channel=3 note=68 velocity=0 time=208>,\n",
       " <message note_on channel=3 note=70 velocity=118 time=6>,\n",
       " <message note_off channel=3 note=70 velocity=0 time=604>,\n",
       " <message note_on channel=3 note=68 velocity=117 time=23>,\n",
       " <message note_off channel=3 note=68 velocity=0 time=215>,\n",
       " <message note_on channel=3 note=70 velocity=117 time=4>,\n",
       " <message note_off channel=3 note=70 velocity=0 time=438>,\n",
       " <message note_on channel=3 note=68 velocity=119 time=8>,\n",
       " <message note_off channel=3 note=68 velocity=0 time=181>,\n",
       " <message note_on channel=3 note=70 velocity=117 time=11>,\n",
       " <message note_off channel=3 note=70 velocity=0 time=308>,\n",
       " <message note_on channel=3 note=68 velocity=113 time=40>,\n",
       " <message note_off channel=3 note=68 velocity=0 time=385>,\n",
       " <message note_on channel=3 note=66 velocity=117 time=20>,\n",
       " <message note_off channel=3 note=66 velocity=0 time=408>,\n",
       " <message note_on channel=3 note=71 velocity=118 time=14>,\n",
       " <message note_off channel=3 note=71 velocity=0 time=650>,\n",
       " <message note_on channel=3 note=70 velocity=115 time=42>,\n",
       " <message note_off channel=3 note=70 velocity=0 time=592>,\n",
       " <message note_on channel=3 note=63 velocity=117 time=28>,\n",
       " <message note_off channel=3 note=63 velocity=0 time=754>,\n",
       " <message note_on channel=3 note=66 velocity=117 time=41>,\n",
       " <message note_off channel=3 note=66 velocity=0 time=138>,\n",
       " <message note_on channel=3 note=66 velocity=117 time=25>,\n",
       " <message note_off channel=3 note=66 velocity=0 time=138>,\n",
       " <message note_on channel=3 note=66 velocity=119 time=24>,\n",
       " <message note_off channel=3 note=66 velocity=0 time=192>,\n",
       " <message note_on channel=3 note=63 velocity=115 time=10>,\n",
       " <message note_off channel=3 note=63 velocity=0 time=227>,\n",
       " <message note_on channel=3 note=61 velocity=118 time=1>,\n",
       " <message note_off channel=3 note=61 velocity=0 time=346>,\n",
       " <message note_on channel=3 note=71 velocity=118 time=30>,\n",
       " <message note_off channel=3 note=71 velocity=0 time=665>,\n",
       " <message note_on channel=3 note=70 velocity=113 time=27>,\n",
       " <message note_off channel=3 note=70 velocity=0 time=592>,\n",
       " <message note_on channel=3 note=59 velocity=119 time=25>,\n",
       " <message note_off channel=3 note=59 velocity=0 time=827>,\n",
       " <message note_on channel=3 note=59 velocity=117 time=26>,\n",
       " <message note_off channel=3 note=59 velocity=0 time=131>,\n",
       " <message note_on channel=3 note=59 velocity=119 time=26>,\n",
       " <message note_off channel=3 note=59 velocity=0 time=131>,\n",
       " <message note_on channel=3 note=59 velocity=114 time=26>,\n",
       " <message note_off channel=3 note=59 velocity=0 time=438>,\n",
       " <message note_on channel=3 note=58 velocity=117 time=8>,\n",
       " <message note_off channel=3 note=58 velocity=0 time=158>,\n",
       " <message note_on channel=3 note=58 velocity=117 time=19>,\n",
       " <message note_off channel=3 note=58 velocity=0 time=512>,\n",
       " <message note_on channel=3 note=71 velocity=118 time=3225>,\n",
       " <message note_off channel=3 note=71 velocity=0 time=585>,\n",
       " <message note_on channel=3 note=71 velocity=115 time=28>,\n",
       " <message note_off channel=3 note=71 velocity=0 time=131>,\n",
       " <message note_on channel=3 note=71 velocity=120 time=26>,\n",
       " <message note_off channel=3 note=71 velocity=0 time=115>,\n",
       " <message note_on channel=3 note=71 velocity=117 time=30>,\n",
       " <message note_off channel=3 note=71 velocity=0 time=215>,\n",
       " <message note_on channel=3 note=70 velocity=117 time=3>,\n",
       " <message note_off channel=3 note=70 velocity=0 time=208>,\n",
       " <message note_on channel=3 note=66 velocity=118 time=7>,\n",
       " <message note_off channel=3 note=66 velocity=0 time=396>,\n",
       " <message note_on channel=3 note=68 velocity=118 time=17>,\n",
       " <message note_off channel=3 note=68 velocity=0 time=127>,\n",
       " <message note_on channel=3 note=68 velocity=118 time=27>,\n",
       " <message note_off channel=3 note=68 velocity=0 time=131>,\n",
       " <message note_on channel=3 note=68 velocity=119 time=26>,\n",
       " <message note_off channel=3 note=68 velocity=0 time=196>,\n",
       " <message note_on channel=3 note=66 velocity=119 time=9>,\n",
       " <message note_off channel=3 note=66 velocity=0 time=196>,\n",
       " <message note_on channel=3 note=63 velocity=117 time=11>,\n",
       " <message note_off channel=3 note=63 velocity=0 time=392>,\n",
       " <message note_on channel=3 note=66 velocity=115 time=16>,\n",
       " <message note_off channel=3 note=66 velocity=0 time=212>,\n",
       " <message note_on channel=3 note=66 velocity=115 time=5>,\n",
       " <message note_off channel=3 note=66 velocity=0 time=212>,\n",
       " <message note_on channel=3 note=68 velocity=118 time=5>,\n",
       " <message note_off channel=3 note=68 velocity=0 time=204>,\n",
       " <message note_on channel=3 note=70 velocity=106 time=7>,\n",
       " <message note_off channel=3 note=70 velocity=0 time=188>,\n",
       " <message note_on channel=3 note=68 velocity=117 time=11>,\n",
       " <message note_off channel=3 note=68 velocity=0 time=208>,\n",
       " <message note_on channel=3 note=66 velocity=113 time=6>,\n",
       " <message note_off channel=3 note=66 velocity=0 time=227>,\n",
       " <message note_on channel=3 note=63 velocity=117 time=1>,\n",
       " <message note_off channel=3 note=63 velocity=0 time=385>,\n",
       " <message note_on channel=3 note=66 velocity=118 time=20>,\n",
       " <message note_off channel=3 note=66 velocity=0 time=196>,\n",
       " <message note_on channel=3 note=66 velocity=117 time=9>,\n",
       " <message note_off channel=3 note=66 velocity=0 time=177>,\n",
       " <message note_on channel=3 note=68 velocity=119 time=14>,\n",
       " <message note_off channel=3 note=68 velocity=0 time=212>,\n",
       " <message note_on channel=3 note=70 velocity=118 time=5>,\n",
       " <message note_off channel=3 note=70 velocity=0 time=204>,\n",
       " <message note_on channel=3 note=68 velocity=118 time=7>,\n",
       " <message note_off channel=3 note=68 velocity=0 time=204>,\n",
       " <message note_on channel=3 note=66 velocity=115 time=7>,\n",
       " <message note_off channel=3 note=66 velocity=0 time=162>,\n",
       " <message note_on channel=3 note=66 velocity=117 time=20>,\n",
       " <message note_off channel=3 note=66 velocity=0 time=323>,\n",
       " <message note_on channel=3 note=66 velocity=114 time=34>,\n",
       " <message note_off channel=3 note=66 velocity=0 time=138>,\n",
       " <message note_on channel=3 note=66 velocity=117 time=24>,\n",
       " <message note_off channel=3 note=66 velocity=0 time=173>,\n",
       " <message note_on channel=3 note=68 velocity=117 time=15>,\n",
       " <message note_off channel=3 note=68 velocity=0 time=181>,\n",
       " <message note_on channel=3 note=70 velocity=119 time=13>,\n",
       " <message note_off channel=3 note=70 velocity=0 time=96>,\n",
       " <message note_on channel=3 note=70 velocity=119 time=5>,\n",
       " <message note_off channel=3 note=70 velocity=0 time=96>,\n",
       " <message note_on channel=3 note=68 velocity=118 time=5>,\n",
       " <message note_off channel=3 note=68 velocity=0 time=177>,\n",
       " <message note_on channel=3 note=66 velocity=117 time=14>,\n",
       " <message note_off channel=3 note=66 velocity=0 time=173>,\n",
       " <message note_on channel=3 note=68 velocity=115 time=15>,\n",
       " <message note_off channel=3 note=68 velocity=0 time=419>,\n",
       " <message note_on channel=3 note=68 velocity=117 time=71>,\n",
       " <message note_off channel=3 note=68 velocity=0 time=96>,\n",
       " <message note_on channel=3 note=68 velocity=117 time=6>,\n",
       " <message note_off channel=3 note=68 velocity=0 time=96>,\n",
       " <message note_on channel=3 note=68 velocity=118 time=4>,\n",
       " <message note_off channel=3 note=68 velocity=0 time=196>,\n",
       " <message note_on channel=3 note=70 velocity=113 time=9>,\n",
       " <message note_off channel=3 note=70 velocity=0 time=177>,\n",
       " <message note_on channel=3 note=68 velocity=117 time=14>,\n",
       " <message note_off channel=3 note=68 velocity=0 time=204>,\n",
       " <message note_on channel=3 note=66 velocity=117 time=7>,\n",
       " <message note_off channel=3 note=66 velocity=0 time=200>,\n",
       " <message note_on channel=3 note=63 velocity=115 time=8>,\n",
       " <message note_off channel=3 note=63 velocity=0 time=362>,\n",
       " <message note_on channel=3 note=66 velocity=118 time=26>,\n",
       " <message note_off channel=3 note=66 velocity=0 time=158>,\n",
       " <message note_on channel=3 note=66 velocity=118 time=19>,\n",
       " <message note_off channel=3 note=66 velocity=0 time=192>,\n",
       " <message note_on channel=3 note=68 velocity=115 time=10>,\n",
       " <message note_off channel=3 note=68 velocity=0 time=192>,\n",
       " <message note_on channel=3 note=70 velocity=113 time=10>,\n",
       " <message note_off channel=3 note=70 velocity=0 time=96>,\n",
       " <message note_on channel=3 note=70 velocity=113 time=6>,\n",
       " <message note_off channel=3 note=70 velocity=0 time=96>,\n",
       " <message note_on channel=3 note=68 velocity=115 time=4>,\n",
       " <message note_off channel=3 note=68 velocity=0 time=219>,\n",
       " <message note_on channel=3 note=66 velocity=118 time=3>,\n",
       " <message note_off channel=3 note=66 velocity=0 time=150>,\n",
       " <message note_on channel=3 note=63 velocity=118 time=21>,\n",
       " <message note_off channel=3 note=63 velocity=0 time=362>,\n",
       " <message note_on channel=3 note=66 velocity=117 time=26>,\n",
       " <message note_off channel=3 note=66 velocity=0 time=150>,\n",
       " <message note_on channel=3 note=66 velocity=115 time=21>,\n",
       " <message note_off channel=3 note=66 velocity=0 time=169>,\n",
       " <message note_on channel=3 note=68 velocity=120 time=16>,\n",
       " <message note_off channel=3 note=68 velocity=0 time=181>,\n",
       " <message note_on channel=3 note=70 velocity=118 time=13>,\n",
       " <message note_off channel=3 note=70 velocity=0 time=177>,\n",
       " <message note_on channel=3 note=68 velocity=118 time=14>,\n",
       " <message note_off channel=3 note=68 velocity=0 time=192>,\n",
       " <message note_on channel=3 note=66 velocity=119 time=10>,\n",
       " <message note_off channel=3 note=66 velocity=0 time=150>,\n",
       " <message note_on channel=3 note=66 velocity=115 time=21>,\n",
       " <message note_off channel=3 note=66 velocity=0 time=335>,\n",
       " <message note_on channel=3 note=66 velocity=117 time=33>,\n",
       " <message note_off channel=3 note=66 velocity=0 time=142>,\n",
       " <message note_on channel=3 note=66 velocity=113 time=23>,\n",
       " <message note_off channel=3 note=66 velocity=0 time=200>,\n",
       " <message note_on channel=3 note=68 velocity=118 time=8>,\n",
       " <message note_off channel=3 note=68 velocity=0 time=212>,\n",
       " <message note_on channel=3 note=66 velocity=114 time=5>,\n",
       " <message note_off channel=3 note=66 velocity=0 time=208>,\n",
       " <message note_on channel=3 note=68 velocity=119 time=6>,\n",
       " <message note_off channel=3 note=68 velocity=0 time=204>,\n",
       " <message note_on channel=3 note=66 velocity=117 time=7>,\n",
       " <message note_on channel=3 note=70 velocity=115 time=60>,\n",
       " <message note_off channel=3 note=66 velocity=0 time=12>,\n",
       " <message note_off channel=3 note=70 velocity=0 time=608>,\n",
       " <message note_on channel=3 note=71 velocity=98 time=73>,\n",
       " <message note_on channel=3 note=70 velocity=109 time=115>,\n",
       " <message note_off channel=3 note=71 velocity=0 time=4>,\n",
       " <message note_off channel=3 note=70 velocity=0 time=108>,\n",
       " <message note_on channel=3 note=68 velocity=115 time=1>,\n",
       " <message note_off channel=3 note=68 velocity=0 time=1008>,\n",
       " <message note_on channel=3 note=63 velocity=115 time=98>,\n",
       " <message note_off channel=3 note=63 velocity=0 time=181>,\n",
       " <message note_on channel=3 note=63 velocity=115 time=13>,\n",
       " <message note_off channel=3 note=63 velocity=0 time=200>,\n",
       " <message note_on channel=3 note=66 velocity=114 time=8>,\n",
       " <message note_off channel=3 note=66 velocity=0 time=323>,\n",
       " <message note_on channel=3 note=63 velocity=114 time=36>,\n",
       " <message note_off channel=3 note=63 velocity=0 time=196>,\n",
       " <message note_on channel=3 note=66 velocity=113 time=9>,\n",
       " <message note_off channel=3 note=66 velocity=0 time=535>,\n",
       " <message note_on channel=3 note=63 velocity=106 time=41>,\n",
       " <message note_off channel=3 note=63 velocity=0 time=188>,\n",
       " <message note_on channel=3 note=66 velocity=113 time=12>,\n",
       " <message note_off channel=3 note=66 velocity=0 time=331>,\n",
       " <message note_on channel=3 note=66 velocity=114 time=33>,\n",
       " <message note_off channel=3 note=66 velocity=0 time=135>,\n",
       " <message note_on channel=3 note=66 velocity=114 time=25>,\n",
       " <message note_off channel=3 note=66 velocity=0 time=173>,\n",
       " <message note_on channel=3 note=66 velocity=106 time=15>,\n",
       " <message note_off channel=3 note=66 velocity=0 time=181>,\n",
       " <message note_on channel=3 note=68 velocity=118 time=13>,\n",
       " <message note_off channel=3 note=68 velocity=0 time=388>,\n",
       " <message note_on channel=3 note=70 velocity=106 time=19>,\n",
       " <message note_off channel=3 note=70 velocity=0 time=377>,\n",
       " <message note_on channel=3 note=68 velocity=118 time=22>,\n",
       " <message note_off channel=3 note=68 velocity=0 time=388>,\n",
       " <message note_on channel=3 note=66 velocity=109 time=19>,\n",
       " <message note_off channel=3 note=66 velocity=0 time=208>,\n",
       " <message note_on channel=3 note=68 velocity=115 time=6>,\n",
       " <message note_off channel=3 note=68 velocity=0 time=423>,\n",
       " <message note_on channel=3 note=66 velocity=103 time=70>,\n",
       " <message note_off channel=3 note=66 velocity=0 time=227>,\n",
       " <message note_on channel=3 note=68 velocity=115 time=1>,\n",
       " <message note_off channel=3 note=68 velocity=0 time=342>,\n",
       " <message note_on channel=3 note=66 velocity=101 time=31>,\n",
       " <message note_off channel=3 note=66 velocity=0 time=158>,\n",
       " <message note_on channel=3 note=68 velocity=113 time=18>,\n",
       " <message note_off channel=3 note=68 velocity=0 time=392>,\n",
       " <message note_on channel=3 note=66 velocity=119 time=19>,\n",
       " <message note_off channel=3 note=66 velocity=0 time=346>,\n",
       " <message note_on channel=3 note=66 velocity=117 time=30>,\n",
       " <message note_off channel=3 note=66 velocity=0 time=362>,\n",
       " <message note_on channel=3 note=71 velocity=115 time=26>,\n",
       " <message note_off channel=3 note=71 velocity=0 time=604>,\n",
       " <message note_on channel=3 note=70 velocity=119 time=23>,\n",
       " <message note_off channel=3 note=70 velocity=0 time=473>,\n",
       " <message note_on channel=3 note=63 velocity=114 time=60>,\n",
       " <message note_off channel=3 note=63 velocity=0 time=862>,\n",
       " <message note_on channel=3 note=66 velocity=117 time=13>,\n",
       " <message note_off channel=3 note=66 velocity=0 time=188>,\n",
       " <message note_on channel=3 note=66 velocity=117 time=11>,\n",
       " <message note_off channel=3 note=66 velocity=0 time=142>,\n",
       " <message note_on channel=3 note=66 velocity=117 time=23>,\n",
       " <message note_off channel=3 note=66 velocity=0 time=181>,\n",
       " <message note_on channel=3 note=63 velocity=117 time=13>,\n",
       " <message note_off channel=3 note=63 velocity=0 time=181>,\n",
       " <message note_on channel=3 note=61 velocity=117 time=13>,\n",
       " <message note_off channel=3 note=61 velocity=0 time=362>,\n",
       " <message note_on channel=3 note=71 velocity=117 time=26>,\n",
       " <message note_off channel=3 note=71 velocity=0 time=619>,\n",
       " <message note_on channel=3 note=70 velocity=115 time=73>,\n",
       " <message note_off channel=3 note=70 velocity=0 time=604>,\n",
       " <message note_on channel=3 note=59 velocity=115 time=88>,\n",
       " <message note_off channel=3 note=59 velocity=0 time=658>,\n",
       " <message note_on channel=3 note=61 velocity=115 time=9>,\n",
       " <message note_off channel=3 note=61 velocity=0 time=708>,\n",
       " <message note_on channel=3 note=70 velocity=114 time=237>,\n",
       " <message note_off channel=3 note=70 velocity=0 time=412>,\n",
       " <message note_on channel=3 note=68 velocity=109 time=13>,\n",
       " <message note_off channel=3 note=68 velocity=0 time=208>,\n",
       " <message note_on channel=3 note=70 velocity=115 time=6>,\n",
       " <message note_off channel=3 note=70 velocity=0 time=592>,\n",
       " <message note_on channel=3 note=68 velocity=119 time=26>,\n",
       " <message note_off channel=3 note=68 velocity=0 time=227>,\n",
       " <message note_on channel=3 note=70 velocity=117 time=3>,\n",
       " <message note_off channel=3 note=70 velocity=0 time=404>,\n",
       " <message note_on channel=3 note=68 velocity=118 time=15>,\n",
       " <message note_off channel=3 note=68 velocity=0 time=146>,\n",
       " <message note_on channel=3 note=70 velocity=115 time=22>,\n",
       " <message note_off channel=3 note=70 velocity=0 time=119>,\n",
       " <message note_on channel=3 note=70 velocity=115 time=27>,\n",
       " <message note_off channel=3 note=70 velocity=0 time=200>,\n",
       " <message note_on channel=3 note=68 velocity=117 time=8>,\n",
       " <message note_off channel=3 note=68 velocity=0 time=404>,\n",
       " <message note_on channel=3 note=66 velocity=119 time=15>,\n",
       " <message note_off channel=3 note=66 velocity=0 time=419>,\n",
       " <message note_on channel=3 note=70 velocity=115 time=11>,\n",
       " <message note_off channel=3 note=70 velocity=0 time=435>,\n",
       " <message note_on channel=3 note=68 velocity=113 time=9>,\n",
       " <message note_off channel=3 note=68 velocity=0 time=208>,\n",
       " <message note_on channel=3 note=70 velocity=117 time=6>,\n",
       " <message note_off channel=3 note=70 velocity=0 time=573>,\n",
       " <message note_on channel=3 note=68 velocity=104 time=29>,\n",
       " <message note_off channel=3 note=68 velocity=0 time=200>,\n",
       " <message note_on channel=3 note=73 velocity=115 time=8>,\n",
       " <message note_off channel=3 note=73 velocity=0 time=423>,\n",
       " <message note_on channel=3 note=70 velocity=114 time=10>,\n",
       " <message note_off channel=3 note=70 velocity=0 time=185>,\n",
       " <message note_on channel=3 note=70 velocity=117 time=12>,\n",
       " <message note_off channel=3 note=70 velocity=0 time=423>,\n",
       " <message note_on channel=3 note=68 velocity=115 time=10>,\n",
       " <message note_off channel=3 note=68 velocity=0 time=446>,\n",
       " <message note_on channel=3 note=66 velocity=119 time=4>,\n",
       " <message note_off channel=3 note=66 velocity=0 time=373>,\n",
       " <message note_on channel=3 note=71 velocity=118 time=23>,\n",
       " <message note_off channel=3 note=71 velocity=0 time=662>,\n",
       " <message note_on channel=3 note=70 velocity=118 time=31>,\n",
       " <message note_off channel=3 note=70 velocity=0 time=558>,\n",
       " <message note_on channel=3 note=63 velocity=118 time=35>,\n",
       " <message note_off channel=3 note=63 velocity=0 time=858>,\n",
       " <message note_on channel=3 note=66 velocity=114 time=17>,\n",
       " <message note_off channel=3 note=66 velocity=0 time=131>,\n",
       " <message note_on channel=3 note=66 velocity=114 time=26>,\n",
       " <message note_off channel=3 note=66 velocity=0 time=135>,\n",
       " <message note_on channel=3 note=66 velocity=118 time=25>,\n",
       " <message note_off channel=3 note=66 velocity=0 time=192>,\n",
       " <message note_on channel=3 note=63 velocity=117 time=10>,\n",
       " <message note_off channel=3 note=63 velocity=0 time=219>,\n",
       " <message note_on channel=3 note=61 velocity=117 time=3>,\n",
       " <message note_off channel=3 note=61 velocity=0 time=319>,\n",
       " <message note_on channel=3 note=71 velocity=117 time=37>,\n",
       " <message note_off channel=3 note=71 velocity=0 time=642>,\n",
       " <message note_on channel=3 note=70 velocity=117 time=50>,\n",
       " <message note_off channel=3 note=70 velocity=0 time=450>,\n",
       " <message note_on channel=3 note=59 velocity=117 time=63>,\n",
       " <message note_off channel=3 note=59 velocity=0 time=642>,\n",
       " <message note_on channel=3 note=59 velocity=117 time=72>,\n",
       " <message note_off channel=3 note=59 velocity=0 time=119>,\n",
       " <message note_on channel=3 note=59 velocity=117 time=29>,\n",
       " <message note_off channel=3 note=59 velocity=0 time=138>,\n",
       " <message note_on channel=3 note=59 velocity=117 time=24>,\n",
       " <message note_off channel=3 note=59 velocity=0 time=392>,\n",
       " <message note_on channel=3 note=58 velocity=117 time=18>,\n",
       " <message note_off channel=3 note=58 velocity=0 time=150>,\n",
       " <message note_on channel=3 note=58 velocity=117 time=21>,\n",
       " <message note_off channel=3 note=58 velocity=0 time=1365>,\n",
       " <message note_on channel=3 note=70 velocity=117 time=305>,\n",
       " <message note_off channel=3 note=70 velocity=0 time=108>,\n",
       " <message note_on channel=3 note=70 velocity=117 time=31>,\n",
       " <message note_off channel=3 note=70 velocity=0 time=131>,\n",
       " <message note_on channel=3 note=70 velocity=117 time=26>,\n",
       " <message note_off channel=3 note=70 velocity=0 time=404>,\n",
       " <message note_on channel=3 note=68 velocity=117 time=16>,\n",
       " <message note_off channel=3 note=68 velocity=0 time=100>,\n",
       " <message note_on channel=3 note=68 velocity=117 time=33>,\n",
       " <message note_off channel=3 note=68 velocity=0 time=427>,\n",
       " <message note_on channel=3 note=70 velocity=117 time=9>,\n",
       " <message note_off channel=3 note=70 velocity=0 time=358>,\n",
       " <message note_on channel=3 note=70 velocity=117 time=208>,\n",
       " <message note_off channel=3 note=70 velocity=0 time=215>,\n",
       " <message note_on channel=3 note=68 velocity=117 time=4>,\n",
       " <message note_off channel=3 note=68 velocity=0 time=138>,\n",
       " <message note_on channel=3 note=70 velocity=117 time=24>,\n",
       " <message note_on channel=3 note=68 velocity=117 time=60>,\n",
       " <message note_off channel=3 note=70 velocity=0 time=19>,\n",
       " <message note_off channel=3 note=68 velocity=0 time=154>,\n",
       " <message note_on channel=3 note=70 velocity=117 time=15>,\n",
       " <message note_off channel=3 note=70 velocity=0 time=381>,\n",
       " <message note_on channel=3 note=68 velocity=117 time=21>,\n",
       " <message note_off channel=3 note=68 velocity=0 time=181>,\n",
       " <message note_on channel=3 note=66 velocity=117 time=13>,\n",
       " <message note_off channel=3 note=66 velocity=0 time=123>,\n",
       " ...]"
      ]
     },
     "execution_count": 50,
     "metadata": {},
     "output_type": "execute_result"
    }
   ],
   "source": [
    "vel0_to_note_off(midi.tracks[0])"
   ]
  },
  {
   "cell_type": "code",
   "execution_count": 51,
   "metadata": {},
   "outputs": [
    {
     "data": {
      "text/plain": [
       "(False, 3279)"
      ]
     },
     "execution_count": 51,
     "metadata": {},
     "output_type": "execute_result"
    }
   ],
   "source": [
    "is_valid(midi.tracks[0])"
   ]
  },
  {
   "cell_type": "code",
   "execution_count": null,
   "metadata": {},
   "outputs": [],
   "source": []
  }
 ],
 "metadata": {
  "kernelspec": {
   "display_name": "Python 3",
   "language": "python",
   "name": "python3"
  },
  "language_info": {
   "codemirror_mode": {
    "name": "ipython",
    "version": 3
   },
   "file_extension": ".py",
   "mimetype": "text/x-python",
   "name": "python",
   "nbconvert_exporter": "python",
   "pygments_lexer": "ipython3",
   "version": "3.7.4"
  }
 },
 "nbformat": 4,
 "nbformat_minor": 2
}
